<svg width="299" height="626" xmlns="http://www.w3.org/2000/svg"><defs/><g fill="none" fill-rule="evenodd"><g fill="#EBEBEB"><path d="M40 0h219c22.09 0 40 17.91 40 40v546c0 22.09-17.91 40-40 40H40c-22.09 0-40-17.91-40-40V40C0 17.91 17.91 0 40 0zm3.8785714 10C25.1676357 10 10 25.222 10 44v538c0 18.778 15.1676357 34 33.8785714 34H255.121429C273.832364 616 289 600.778 289 582V44c0-18.778-15.167636-34-33.878571-34H43.8785714z"/><path d="M90 10h120v4.545C210 23.08 203.97 30 196.535 30h-93.07C96.03 30 90 23.08 90 14.545V10z"/></g><g transform="translate(129 15)" fill="#D2D2D2"><rect width="40" height="4" rx="2"/><path d="M48 4c1.007 0 2-.993 2-2.003C50 .987 49.007 0 48 0c-1.007 0-2 1.044-2 2.054C46 3.064 46.993 4 48 4z"/></g></g></svg>