<svg xmlns="http://www.w3.org/2000/svg" width="1035" height="573" fill="none" fill-rule="evenodd"><path d="M133 0h770c16.57 0 30 13.43 30 30v510H103V30c0-16.57 13.43-30 30-30zm-2 27v486h775V27H131z" fill="#e6e6e6"/><circle fill="#d2d2d2" cx="518" cy="14" r="3"/><path d="M958.297 572.106h-881.6C30.867 572.106 0 566.398 0 560.66v-17.44c0-1.724 1.996-3.115 4.48-3.115h1026.036c2.485 0 4.485 1.39 4.485 3.115v18.127c-.01 4.535-23.914 10.758-76.703 10.758z" fill="#ebebeb"/><path stroke-width="4" d="M133 29h771v482H133z"/><path d="M629 540v4.487c0 3.2-6.47 4.165-11.37 4.165H416.67c-5.153 0-11.67-.965-11.67-4.165V540" fill="#d2d2d2"/></svg>